<mxfile host="app.diagrams.net" modified="2024-08-07T08:57:17.028Z" agent="Mozilla/5.0 (Windows NT 10.0; Win64; x64) AppleWebKit/537.36 (KHTML, like Gecko) Chrome/127.0.0.0 Safari/537.36 Edg/127.0.0.0" etag="-WIKFOrWnQ3bAHVfz6hA" version="24.4.9" type="github">
  <diagram name="第 1 页" id="cEUEjpOXRdQMH25T6i1Y">
    <mxGraphModel dx="1397" dy="788" grid="1" gridSize="10" guides="1" tooltips="1" connect="1" arrows="1" fold="1" page="1" pageScale="1" pageWidth="827" pageHeight="1169" math="0" shadow="0">
      <root>
        <mxCell id="0" />
        <mxCell id="1" parent="0" />
        <mxCell id="V2yEh5TrKZx0-5OOb6w3-1" value="Editor" style="rounded=1;whiteSpace=wrap;html=1;" vertex="1" parent="1">
          <mxGeometry x="320" y="193" width="100" height="60" as="geometry" />
        </mxCell>
        <mxCell id="V2yEh5TrKZx0-5OOb6w3-2" value="" style="endArrow=classic;html=1;rounded=0;entryX=0.5;entryY=0;entryDx=0;entryDy=0;" edge="1" parent="1" target="V2yEh5TrKZx0-5OOb6w3-5">
          <mxGeometry width="50" height="50" relative="1" as="geometry">
            <mxPoint x="370" y="250" as="sourcePoint" />
            <mxPoint x="170" y="440" as="targetPoint" />
            <Array as="points">
              <mxPoint x="370" y="440" />
            </Array>
          </mxGeometry>
        </mxCell>
        <mxCell id="V2yEh5TrKZx0-5OOb6w3-3" value="" style="endArrow=classic;html=1;rounded=0;exitX=0.5;exitY=1;exitDx=0;exitDy=0;entryX=0.5;entryY=0;entryDx=0;entryDy=0;exitPerimeter=0;" edge="1" parent="1" source="V2yEh5TrKZx0-5OOb6w3-5" target="V2yEh5TrKZx0-5OOb6w3-7">
          <mxGeometry width="50" height="50" relative="1" as="geometry">
            <mxPoint x="420" y="530" as="sourcePoint" />
            <mxPoint x="670" y="760" as="targetPoint" />
            <Array as="points" />
          </mxGeometry>
        </mxCell>
        <mxCell id="V2yEh5TrKZx0-5OOb6w3-4" value="VisualElement&lt;div&gt;&lt;br&gt;&lt;/div&gt;" style="text;html=1;align=center;verticalAlign=bottom;resizable=0;points=[];autosize=1;strokeColor=none;fillColor=none;" vertex="1" parent="1">
          <mxGeometry x="430" y="203" width="100" height="40" as="geometry" />
        </mxCell>
        <mxCell id="V2yEh5TrKZx0-5OOb6w3-5" value="Graph&lt;div&gt;View&lt;/div&gt;" style="whiteSpace=wrap;html=1;aspect=fixed;" vertex="1" parent="1">
          <mxGeometry x="330" y="460" width="80" height="80" as="geometry" />
        </mxCell>
        <mxCell id="V2yEh5TrKZx0-5OOb6w3-7" value="Node" style="rounded=0;whiteSpace=wrap;html=1;" vertex="1" parent="1">
          <mxGeometry x="330" y="750" width="80" height="70" as="geometry" />
        </mxCell>
        <mxCell id="V2yEh5TrKZx0-5OOb6w3-9" value="GraphElement" style="text;html=1;align=center;verticalAlign=middle;resizable=0;points=[];autosize=1;strokeColor=none;fillColor=none;" vertex="1" parent="1">
          <mxGeometry x="490" y="770" width="100" height="30" as="geometry" />
        </mxCell>
        <mxCell id="V2yEh5TrKZx0-5OOb6w3-11" value="VisualElement&lt;div&gt;&lt;br&gt;&lt;/div&gt;" style="text;html=1;align=center;verticalAlign=bottom;resizable=0;points=[];autosize=1;strokeColor=none;fillColor=none;" vertex="1" parent="1">
          <mxGeometry x="460" y="480" width="100" height="40" as="geometry" />
        </mxCell>
        <mxCell id="V2yEh5TrKZx0-5OOb6w3-12" value="" style="endArrow=classic;html=1;rounded=0;exitX=1.035;exitY=0.549;exitDx=0;exitDy=0;exitPerimeter=0;" edge="1" parent="1" source="V2yEh5TrKZx0-5OOb6w3-5">
          <mxGeometry width="50" height="50" relative="1" as="geometry">
            <mxPoint x="420" y="540" as="sourcePoint" />
            <mxPoint x="460" y="500" as="targetPoint" />
          </mxGeometry>
        </mxCell>
        <mxCell id="V2yEh5TrKZx0-5OOb6w3-13" value="" style="endArrow=classic;html=1;rounded=0;" edge="1" parent="1">
          <mxGeometry width="50" height="50" relative="1" as="geometry">
            <mxPoint x="370" y="820" as="sourcePoint" />
            <mxPoint x="280" y="920" as="targetPoint" />
          </mxGeometry>
        </mxCell>
        <mxCell id="V2yEh5TrKZx0-5OOb6w3-14" value="" style="endArrow=classic;html=1;rounded=0;" edge="1" parent="1">
          <mxGeometry width="50" height="50" relative="1" as="geometry">
            <mxPoint x="370" y="820" as="sourcePoint" />
            <mxPoint x="470" y="920" as="targetPoint" />
          </mxGeometry>
        </mxCell>
        <mxCell id="V2yEh5TrKZx0-5OOb6w3-15" value="In port" style="whiteSpace=wrap;html=1;" vertex="1" parent="1">
          <mxGeometry x="200" y="930" width="120" height="60" as="geometry" />
        </mxCell>
        <mxCell id="V2yEh5TrKZx0-5OOb6w3-16" value="out port" style="whiteSpace=wrap;html=1;" vertex="1" parent="1">
          <mxGeometry x="430" y="930" width="120" height="60" as="geometry" />
        </mxCell>
        <mxCell id="V2yEh5TrKZx0-5OOb6w3-17" value="" style="endArrow=classic;startArrow=classic;html=1;rounded=0;" edge="1" parent="1">
          <mxGeometry width="50" height="50" relative="1" as="geometry">
            <mxPoint x="120" y="970" as="sourcePoint" />
            <mxPoint x="170" y="920" as="targetPoint" />
          </mxGeometry>
        </mxCell>
        <mxCell id="V2yEh5TrKZx0-5OOb6w3-18" value="" style="endArrow=classic;startArrow=classic;html=1;rounded=0;entryX=0.509;entryY=1.101;entryDx=0;entryDy=0;entryPerimeter=0;" edge="1" parent="1" target="V2yEh5TrKZx0-5OOb6w3-9">
          <mxGeometry width="50" height="50" relative="1" as="geometry">
            <mxPoint x="510" y="910" as="sourcePoint" />
            <mxPoint x="550" y="840" as="targetPoint" />
          </mxGeometry>
        </mxCell>
        <mxCell id="V2yEh5TrKZx0-5OOb6w3-19" value="" style="endArrow=classic;startArrow=classic;html=1;rounded=0;entryX=0.02;entryY=0.802;entryDx=0;entryDy=0;entryPerimeter=0;" edge="1" parent="1" target="V2yEh5TrKZx0-5OOb6w3-9">
          <mxGeometry width="50" height="50" relative="1" as="geometry">
            <mxPoint x="420" y="800" as="sourcePoint" />
            <mxPoint x="470" y="750" as="targetPoint" />
          </mxGeometry>
        </mxCell>
      </root>
    </mxGraphModel>
  </diagram>
</mxfile>
